inDegrees=no
num_controls=7
num_derivatives=13
num_iterations=229
num_multipliers=7
num_parameters=0
num_slacks=7
num_states=26
objective=5.399691
objective_accelerations=0.364138
objective_balance=0.041152
objective_effort=0.373902
objective_height=4.547708
objective_ligament=0.072791
solver_duration=2232.306421
status=Solve_Succeeded
success=true
DataType=double
version=3
OpenSimVersion=4.4-2022-07-23-0e9fedc
endheader
time	/jointset/ground_pelvis/pelvis_tilt/value	/jointset/ground_pelvis/pelvis_tx/value	/jointset/ground_pelvis/pelvis_ty/value	/jointset/hip_l/hip_flexion_l/value	/jointset/hip_l/hip_adduction_l/value	/jointset/hip_l/hip_rotation_l/value	/jointset/back/lumbar_extension/value	/jointset/patellofemoral_l/patellar_flexion_l/value	/jointset/knee_l/knee_flexion_l/value	/jointset/knee_l/knee_adduction_l/value	/jointset/knee_l/knee_rotation_l/value	/jointset/ankle_l/ankle_angle_l/value	/jointset/subtalar_l/subtalar_angle_l/value	/jointset/ground_pelvis/pelvis_tilt/speed	/jointset/ground_pelvis/pelvis_tx/speed	/jointset/ground_pelvis/pelvis_ty/speed	/jointset/hip_l/hip_flexion_l/speed	/jointset/hip_l/hip_adduction_l/speed	/jointset/hip_l/hip_rotation_l/speed	/jointset/back/lumbar_extension/speed	/jointset/patellofemoral_l/patellar_flexion_l/speed	/jointset/knee_l/knee_flexion_l/speed	/jointset/knee_l/knee_adduction_l/speed	/jointset/knee_l/knee_rotation_l/speed	/jointset/ankle_l/ankle_angle_l/speed	/jointset/subtalar_l/subtalar_angle_l/speed	/forceset/tau_hip_flexion_l	/forceset/tau_hip_adduction_l	/forceset/tau_hip_rotation_l	/forceset/tau_knee_flexion_l	/forceset/tau_ankle_angle_l	/forceset/tau_subtalar_angle_l	/forceset/tau_lumbar_extension	lambda_cid13_p0	lambda_cid13_p1	lambda_cid13_p2	lambda_cid13_p3	lambda_cid13_p4	lambda_cid13_p5	lambda_cid14_p0	/jointset/ground_pelvis/pelvis_tilt/accel	/jointset/ground_pelvis/pelvis_tx/accel	/jointset/ground_pelvis/pelvis_ty/accel	/jointset/hip_l/hip_flexion_l/accel	/jointset/hip_l/hip_adduction_l/accel	/jointset/hip_l/hip_rotation_l/accel	/jointset/back/lumbar_extension/accel	/jointset/patellofemoral_l/patellar_flexion_l/accel	/jointset/knee_l/knee_flexion_l/accel	/jointset/knee_l/knee_adduction_l/accel	/jointset/knee_l/knee_rotation_l/accel	/jointset/ankle_l/ankle_angle_l/accel	/jointset/subtalar_l/subtalar_angle_l/accel	gamma_cid13_p0	gamma_cid13_p1	gamma_cid13_p2	gamma_cid13_p3	gamma_cid13_p4	gamma_cid13_p5	gamma_cid14_p0
1.5	0.08860527415113653	0.0280509840363772	0.8853994089431046	0.4523321607467971	-0.3195949896868328	-0.1709615193123568	-0.7699737872214223	0.6619659558317555	0.661965955831773	-0.1159704024583929	-0.1745329068023931	0.1723774692989422	0.03541621507749237	0.1081953212318251	0.1667001815947332	0.2810940614389039	-1.398279924355985	0.1037746980249518	-0.5555388573233028	0.848205547554747	-1.69606954668487	-1.696069546684873	-0.1166969745230337	4.286321747536058e-06	-0.5080027726318587	-0.06583730721049198	-0.1348292844785683	0.02322367069863855	-0.004701931415655222	-0.2171290352718918	0.02785463688947934	0.0390612165281255	0.2399823992586874	-33.52426300195943	-14.39840359644075	5.615123569271964	-1.896411948196252	-676.1627242839538	-80.66846271068727	-19.23404398187996	-0.2289955874726591	0.3784065443575	-0.4710477553655538	-0.275336951380855	0.3414950182309556	-0.2750361096917472	1.500822102011161	-0.7317499525945111	-0.7317499525945196	-0.2596833940786507	0.02610433724823038	-0.2085204504428521	0.3313822878272693	4.637577963333929e-08	1.034174112000733e-06	-1.821652157161701e-07	1.38305858129875e-07	7.293034604534963e-08	4.855456207007414e-07	1.089906650079235e-07
1.51	0.08967566950673453	0.02973672742863216	0.8881862481645125	0.4383372109994797	-0.3185405736617217	-0.1765311785925637	-0.7614178400022287	0.6449708900172286	0.6449708900172314	-0.1171504807769452	-0.1745329077907181	0.1672876449324995	0.03477409657016992	0.1058763140266628	0.1704283987417804	0.2762214906272937	-1.400533944436758	0.1071033856576753	-0.5583301840781179	0.8628624620720851	-1.702711617523679	-1.70271161752368	-0.1193144857145542	-2.429322149239643e-06	-0.5098814515558722	-0.06257030312915526	-0.1294579327324206	0.02207005305433636	-0.004713109626330599	-0.214086410694271	0.02992950175999597	0.0383282415621231	0.2344161586070275	-32.73148640504659	-14.23077211611584	5.601979668974139	-2.048485593846751	-673.2660185525198	-80.56560710399376	-19.75623659334198	-0.2344734783636578	0.367044177261341	-0.5031927543844701	-0.1740296227567661	0.3276833320515458	-0.2716618447732016	1.429910994814234	-0.5956569819445529	-0.5956569819444105	-0.2619915367852402	-0.01377292964977272	-0.1654147891463872	0.3266197303400459	3.759752966752256e-08	1.059153300565145e-06	-1.501630191379773e-07	1.446860068925434e-07	6.710885236206143e-08	4.769982286980642e-07	1.068087404359593e-07
1.52	0.09072265075201577	0.03145915596783419	0.8909227954757392	0.4243250020340883	-0.3174530452210316	-0.1821268473175982	-0.752718966664218	0.6279163592278296	0.6279163592278175	-0.1183565755184322	-0.174532918618365	0.1621814591416635	0.03416510015607149	0.103512499168475	0.1740372109841487	0.2710356794026544	-1.401731767970779	0.1103971811407387	-0.5607407462888051	0.8767907713181868	-1.707962541659308	-1.707962541659309	-0.1219002591099345	2.318456308329853e-06	-0.5112750575105174	-0.05921288856569164	-0.1240865809862728	0.02091643541003399	-0.004724287837007781	-0.21104378611665	0.03200436663051253	0.03759526659612052	0.2288499179553677	-31.94356900197357	-14.06280873018657	5.589376010801564	-2.210593125935186	-670.4601591233387	-80.489071542817	-20.25662664144643	-0.2379571180777758	0.3545255634217223	-0.5336958379713642	-0.06409764203029568	0.3345165882989231	-0.1988832008661548	1.355101047763863	-0.4535206119587781	-0.4535206119587781	-0.2533358348506218	0.02839702171909845	-0.1115058565691921	0.3494643842526506	2.74217428875018e-08	1.079221591615667e-06	-1.127809487518511e-07	1.5077958669885e-07	5.962500432238015e-08	4.630378095515701e-07	1.03535969859821e-07
1.53	0.09174574891533849	0.03321703430479855	0.8936059669295795	0.4103061829937202	-0.3163327322949877	-0.1877448552386575	-0.7438845490220869	0.6108163636270597	0.6108163636270622	-0.119588200422934	-0.1745329111661706	0.1570637957620679	0.0335901727222071	0.1011005026203233	0.1775141127687064	0.2655515972188094	-1.401851643152314	0.113656804429415	-0.5627969064955406	0.8899580621999131	-1.711797634175778	-1.711797634175777	-0.1244180589240966	-5.743525183659916e-07	-0.5121753696379499	-0.05576003404916344	-0.118603790946246	0.01965543397421745	-0.004780144864514462	-0.2081312767148856	0.03418180690117519	0.03682293549495894	0.2232041506280341	-31.13174906671669	-13.87881338867835	5.570646767828912	-2.353525036050635	-667.7530538989885	-80.41372704636973	-20.73211215686893	-0.2438237183454367	0.3406528735548944	-0.5628074460127526	0.04111601731730374	0.3202708706144264	-0.1993072088679018	1.277338872158463	-0.3126812699782687	-0.3126812699781458	-0.2498290784821665	-0.01460258207433155	-0.06692821259113993	0.3449125182827956	1.576107324238928e-08	1.094072054057682e-06	-6.96827624447955e-08	1.565686869890222e-07	5.037490477903124e-08	4.433260490647704e-07	9.910417540424754e-08
1.54	0.09274452655414743	0.03500895773712492	0.8962328889540969	0.3962915748962433	-0.3151801060017644	-0.1933814897174425	-0.7349224993183822	0.5936851815614277	0.5936851815614446	-0.1208447687303342	-0.1745329251994329	0.1519396023968459	0.03305011714009397	0.09864839426570854	0.1808462300565491	0.2597857935380966	-1.40088957939255	0.116859854576589	-0.5644660578339021	0.9023171836328973	-1.714199834631738	-1.714199834631737	-0.1268889396895852	-2.273156976147287e-06	-0.5125810546358173	-0.0522385182154396	-0.1131210009062198	0.01839443253840027	-0.004836001892020279	-0.2052187673131216	0.03635924717183754	0.03605060439379652	0.2175583833007003	-30.32514338371926	-13.69370732058892	5.551515005751207	-2.503687959074388	-665.1417531480452	-80.36062150927062	-21.17962396799848	-0.245979479370413	0.3255686640787498	-0.5900401373449449	0.1522901462295937	0.3232019599984693	-0.1214814271913456	1.193467158015422	-0.1669421998570104	-0.1669421998570102	-0.2439520251159308	0.02863582259288423	-0.01258043065621777	0.3631966476917793	1.227975988557332e-08	1.09805057915883e-06	-6.706275811578696e-08	1.574365372491136e-07	4.932359568809169e-08	4.391569151547837e-07	9.89509746459636e-08
